{
  "accessors": [
    {
      "bufferView": 2,
      "componentType": 5126,
      "count": 65532,
      "max": [
        12.6019287109375,
        23.505722045898438,
        9.676677703857422
      ],
      "min": [
        -12.813285827636719,
        -13.035576820373535,
        -10.839527130126953
      ],
      "type": "VEC3"
    },
    {
      "bufferView": 2,
      "byteOffset": 786384,
      "componentType": 5126,
      "count": 65532,
      "max": [
        1.0,
        1.0,
        1.0
      ],
      "min": [
        -1.0,
        -1.0,
        -1.0
      ],
      "type": "VEC3"
    },
    {
      "bufferView": 3,
      "componentType": 5126,
      "count": 65532,
      "max": [
        1.0,
        1.0,
        1.0,
        1.0
      ],
      "min": [
        -1.0,
        -1.0,
        -1.0,
        -1.0
      ],
      "type": "VEC4"
    },
    {
      "bufferView": 1,
      "componentType": 5126,
      "count": 65532,
      "max": [
        0.9994490146636963,
        0.9980229735374451
      ],
      "min": [
        0.000582000007852912,
        0.000582000007852912
      ],
      "type": "VEC2"
    },
    {
      "bufferView": 0,
      "componentType": 5125,
      "count": 199395,
      "type": "SCALAR"
    },
    {
      "bufferView": 2,
      "byteOffset": 1572768,
      "componentType": 5126,
      "count": 65532,
      "max": [
        12.813285827636719,
        23.505722045898438,
        9.676677703857422
      ],
      "min": [
        -12.6019287109375,
        -13.035576820373535,
        -10.839527130126953
      ],
      "type": "VEC3"
    },
    {
      "bufferView": 2,
      "byteOffset": 2359152,
      "componentType": 5126,
      "count": 65532,
      "max": [
        1.0,
        1.0,
        1.0
      ],
      "min": [
        -1.0,
        -1.0,
        -1.0
      ],
      "type": "VEC3"
    },
    {
      "bufferView": 3,
      "byteOffset": 1048512,
      "componentType": 5126,
      "count": 65532,
      "max": [
        1.0,
        1.0,
        1.0,
        1.0
      ],
      "min": [
        -1.0,
        -1.0,
        -1.0,
        -1.0
      ],
      "type": "VEC4"
    },
    {
      "bufferView": 1,
      "byteOffset": 524256,
      "componentType": 5126,
      "count": 65532,
      "max": [
        0.9994490146636963,
        0.9988970160484314
      ],
      "min": [
        0.000582000007852912,
        0.000582000007852912
      ],
      "type": "VEC2"
    },
    {
      "bufferView": 0,
      "byteOffset": 797580,
      "componentType": 5125,
      "count": 166851,
      "type": "SCALAR"
    },
    {
      "bufferView": 2,
      "byteOffset": 3145536,
      "componentType": 5126,
      "count": 18758,
      "max": [
        -0.002761000068858266,
        23.340240478515625,
        9.097501754760742
      ],
      "min": [
        -12.42166519165039,
        -13.035576820373535,
        -10.366863250732422
      ],
      "type": "VEC3"
    },
    {
      "bufferView": 2,
      "byteOffset": 3370632,
      "componentType": 5126,
      "count": 18758,
      "max": [
        1.0,
        1.0,
        1.0
      ],
      "min": [
        -1.0,
        -1.0,
        -1.0
      ],
      "type": "VEC3"
    },
    {
      "bufferView": 3,
      "byteOffset": 2097024,
      "componentType": 5126,
      "count": 18758,
      "max": [
        1.0,
        1.0,
        1.0,
        1.0
      ],
      "min": [
        -1.0,
        -1.0,
        -1.0,
        1.0
      ],
      "type": "VEC4"
    },
    {
      "bufferView": 1,
      "byteOffset": 1048512,
      "componentType": 5126,
      "count": 18758,
      "max": [
        0.9994480013847351,
        0.9987099766731262
      ],
      "min": [
        0.000582000007852912,
        0.000582000007852912
      ],
      "type": "VEC2"
    },
    {
      "bufferView": 0,
      "byteOffset": 1464984,
      "componentType": 5125,
      "count": 40224,
      "type": "SCALAR"
    },
    {
      "bufferView": 2,
      "byteOffset": 3595728,
      "componentType": 5126,
      "count": 5640,
      "max": [
        7.26385498046875,
        54.4172248840332,
        7.222370147705078
      ],
      "min": [
        -7.26385498046875,
        20.5925350189209,
        -2.279175043106079
      ],
      "type": "VEC3"
    },
    {
      "bufferView": 2,
      "byteOffset": 3663408,
      "componentType": 5126,
      "count": 5640,
      "max": [
        1.0,
        0.45922669768333435,
        1.0
      ],
      "min": [
        -1.0,
        -1.0,
        -1.0
      ],
      "type": "VEC3"
    },
    {
      "bufferView": 1,
      "byteOffset": 1198576,
      "componentType": 5126,
      "count": 5640,
      "max": [
        0.9821400046348572,
        0.9934830069541931
      ],
      "min": [
        0.007009000051766634,
        0.006517000030726194
      ],
      "type": "VEC2"
    },
    {
      "bufferView": 0,
      "byteOffset": 1625880,
      "componentType": 5125,
      "count": 33024,
      "type": "SCALAR"
    },
    {
      "bufferView": 2,
      "byteOffset": 3731088,
      "componentType": 5126,
      "count": 512,
      "max": [
        7.495697021484375,
        27.870346069335938,
        7.454212188720703
      ],
      "min": [
        -7.495697021484375,
        21.305498123168945,
        -2.616837978363037
      ],
      "type": "VEC3"
    },
    {
      "bufferView": 2,
      "byteOffset": 3737232,
      "componentType": 5126,
      "count": 512,
      "max": [
        0.9933544993400574,
        -0.11509472876787186,
        0.9933544993400574
      ],
      "min": [
        -0.9933544993400574,
        -0.37860164046287537,
        -0.9933544993400574
      ],
      "type": "VEC3"
    },
    {
      "bufferView": 1,
      "byteOffset": 1243696,
      "componentType": 5126,
      "count": 512,
      "max": [
        0.6486570239067078,
        0.9771100282669067
      ],
      "min": [
        0.004480000119656324,
        0.0228899996727705
      ],
      "type": "VEC2"
    },
    {
      "bufferView": 0,
      "byteOffset": 1757976,
      "componentType": 5125,
      "count": 2304,
      "type": "SCALAR"
    }
  ],
  "asset": {
    "extras": {
      "author": "Vaportrash (https://sketchfab.com/vaportrash)",
      "license": "CC-BY-4.0 (http://creativecommons.org/licenses/by/4.0/)",
      "source": "https://sketchfab.com/3d-models/zr-709a-ii-resplendent-equinox-1bcf6fcceac941619959555ba6f28f68",
      "title": "ZR-709A II 'Resplendent Equinox'"
    },
    "generator": "Sketchfab-16.61.0",
    "version": "2.0"
  },
  "bufferViews": [
    {
      "buffer": 0,
      "byteLength": 1767192,
      "name": "floatBufferViews",
      "target": 34963
    },
    {
      "buffer": 0,
      "byteLength": 1247792,
      "byteOffset": 1767192,
      "byteStride": 8,
      "name": "floatBufferViews",
      "target": 34962
    },
    {
      "buffer": 0,
      "byteLength": 3743376,
      "byteOffset": 3014984,
      "byteStride": 12,
      "name": "floatBufferViews",
      "target": 34962
    },
    {
      "buffer": 0,
      "byteLength": 2397152,
      "byteOffset": 6758360,
      "byteStride": 16,
      "name": "floatBufferViews",
      "target": 34962
    }
  ],
  "buffers": [
    {
      "byteLength": 9155512,
      "uri": "scene.bin"
    }
  ],
  "extensionsUsed": [
    "KHR_materials_specular"
  ],
  "images": [
    {
      "uri": "textures/master_combined_mat_baseColor.jpeg"
    },
    {
      "uri": "textures/master_combined_mat_metallicRoughness.png"
    },
    {
      "uri": "textures/master_combined_mat_normal.png"
    },
    {
      "uri": "textures/thruster_FX_mat1_baseColor.png"
    },
    {
      "uri": "textures/thruster_FX_mat1_emissive.png"
    },
    {
      "uri": "textures/thruster_FX_mat2_baseColor.png"
    },
    {
      "uri": "textures/thruster_FX_mat2_emissive.png"
    }
  ],
  "materials": [
    {
      "doubleSided": true,
      "name": "master_combined_mat",
      "normalTexture": {
        "index": 2
      },
      "pbrMetallicRoughness": {
        "baseColorTexture": {
          "index": 0
        },
        "metallicRoughnessTexture": {
          "index": 1
        }
      }
    },
    {
      "alphaMode": "BLEND",
      "doubleSided": true,
      "emissiveFactor": [
        1.0,
        1.0,
        1.0
      ],
      "emissiveTexture": {
        "index": 4
      },
      "extensions": {
        "KHR_materials_specular": {
          "specularColorFactor": [
            1.0,
            1.0,
            1.0
          ],
          "specularFactor": 0.0
        }
      },
      "name": "thruster_FX_mat1",
      "pbrMetallicRoughness": {
        "baseColorTexture": {
          "index": 3
        },
        "metallicFactor": 0.0,
        "roughnessFactor": 0.0
      }
    },
    {
      "alphaMode": "BLEND",
      "doubleSided": true,
      "emissiveFactor": [
        1.0,
        1.0,
        1.0
      ],
      "emissiveTexture": {
        "index": 6
      },
      "extensions": {
        "KHR_materials_specular": {
          "specularColorFactor": [
            1.0,
            1.0,
            1.0
          ],
          "specularFactor": 0.0
        }
      },
      "name": "thruster_FX_mat2",
      "pbrMetallicRoughness": {
        "baseColorTexture": {
          "index": 5
        },
        "metallicFactor": 0.0
      }
    }
  ],
  "meshes": [
    {
      "name": "Object_0",
      "primitives": [
        {
          "attributes": {
            "NORMAL": 1,
            "POSITION": 0,
            "TANGENT": 2,
            "TEXCOORD_0": 3
          },
          "indices": 4,
          "material": 0,
          "mode": 4
        }
      ]
    },
    {
      "name": "Object_1",
      "primitives": [
        {
          "attributes": {
            "NORMAL": 6,
            "POSITION": 5,
            "TANGENT": 7,
            "TEXCOORD_0": 8
          },
          "indices": 9,
          "material": 0,
          "mode": 4
        }
      ]
    },
    {
      "name": "Object_2",
      "primitives": [
        {
          "attributes": {
            "NORMAL": 11,
            "POSITION": 10,
            "TANGENT": 12,
            "TEXCOORD_0": 13
          },
          "indices": 14,
          "material": 0,
          "mode": 4
        }
      ]
    },
    {
      "name": "Object_3",
      "primitives": [
        {
          "attributes": {
            "NORMAL": 16,
            "POSITION": 15,
            "TEXCOORD_0": 17
          },
          "indices": 18,
          "material": 1,
          "mode": 4
        }
      ]
    },
    {
      "name": "Object_4",
      "primitives": [
        {
          "attributes": {
            "NORMAL": 20,
            "POSITION": 19,
            "TEXCOORD_0": 21
          },
          "indices": 22,
          "material": 2,
          "mode": 4
        }
      ]
    }
  ],
  "nodes": [
    {
      "children": [
        1
      ],
      "matrix": [
        1.0,
        0.0,
        0.0,
        0.0,
        0.0,
        2.220446049250313e-16,
        -1.0,
        0.0,
        0.0,
        1.0,
        2.220446049250313e-16,
        0.0,
        0.0,
        0.0,
        0.0,
        1.0
      ],
      "name": "Sketchfab_model"
    },
    {
      "children": [
        2,
        3,
        4,
        5,
        6
      ],
      "name": "ZR-709A_II_var2_w50.obj.cleaner.materialmerger.gles"
    },
    {
      "mesh": 0,
      "name": "Object_2"
    },
    {
      "mesh": 1,
      "name": "Object_3"
    },
    {
      "mesh": 2,
      "name": "Object_4"
    },
    {
      "mesh": 3,
      "name": "Object_5"
    },
    {
      "mesh": 4,
      "name": "Object_6"
    }
  ],
  "samplers": [
    {
      "magFilter": 9729,
      "minFilter": 9987,
      "wrapS": 10497,
      "wrapT": 10497
    }
  ],
  "scene": 0,
  "scenes": [
    {
      "name": "Sketchfab_Scene",
      "nodes": [
        0
      ]
    }
  ],
  "textures": [
    {
      "sampler": 0,
      "source": 0
    },
    {
      "sampler": 0,
      "source": 1
    },
    {
      "sampler": 0,
      "source": 2
    },
    {
      "sampler": 0,
      "source": 3
    },
    {
      "sampler": 0,
      "source": 4
    },
    {
      "sampler": 0,
      "source": 5
    },
    {
      "sampler": 0,
      "source": 6
    }
  ]
}
